<?xml version="1.0" standalone="no"?>
<!DOCTYPE svg PUBLIC "-//W3C//DTD SVG 20010904//EN"
 "http://www.w3.org/TR/2001/REC-SVG-20010904/DTD/svg10.dtd">
<svg version="1.0" xmlns="http://www.w3.org/2000/svg"
 width="128.000000pt" height="128.000000pt" viewBox="0 0 128.000000 128.000000"
 preserveAspectRatio="xMidYMid meet">
<metadata>
Created by potrace 1.14, written by Peter Selinger 2001-2017
</metadata>
<g transform="translate(0.000000,128.000000) scale(0.100000,-0.100000)"
fill="#000000" stroke="none">
<path d="M555 1259 c-16 -5 -45 -22 -63 -39 -28 -25 -54 -35 -83 -32 -22 3
-97 -109 -128 -191 -6 -15 -15 -27 -21 -27 -6 0 -8 -4 -5 -10 3 -5 1 -10 -4
-10 -6 0 -11 -7 -11 -15 0 -8 -8 -24 -17 -35 -10 -11 -16 -22 -14 -23 2 -1 -2
-13 -9 -27 -8 -14 -15 -34 -16 -45 -2 -41 -4 -46 -13 -40 -5 3 -13 1 -16 -5
-4 -6 -3 -10 2 -9 20 4 24 -2 12 -18 -10 -11 -10 -14 -1 -9 7 4 12 1 12 -8 0
-9 -6 -13 -14 -10 -7 3 -16 -2 -20 -11 -3 -9 -10 -13 -16 -10 -6 4 -7 11 -4
17 4 6 3 8 -3 5 -11 -7 -11 -36 0 -54 6 -9 0 -10 -23 -1 -17 5 -34 8 -37 4 -4
-3 2 -6 13 -6 16 0 17 -2 4 -11 -11 -8 -9 -9 10 -3 22 6 23 5 11 -10 -11 -13
-11 -16 0 -16 10 -1 9 -4 -3 -14 -10 -7 -15 -16 -11 -19 3 -4 1 -7 -4 -7 -6 0
-13 5 -15 12 -3 9 -6 9 -12 0 -4 -7 -2 -12 3 -12 6 0 11 -7 11 -16 0 -8 -4
-12 -10 -9 -5 3 -10 2 -10 -3 0 -5 10 -12 21 -15 16 -4 20 -11 16 -26 -5 -22
15 -46 28 -33 5 4 5 1 0 -6 -4 -8 -16 -11 -27 -9 -16 5 -17 3 -6 -11 11 -13
11 -15 -5 -9 -9 3 -17 4 -17 1 0 -13 46 -21 59 -10 12 9 13 8 7 -2 -7 -11 -4
-12 13 -3 11 7 21 8 21 4 0 -5 11 -10 26 -11 16 -1 23 2 19 9 -4 6 2 5 13 -2
22 -14 52 -4 89 30 41 38 82 61 88 51 5 -8 12 -7 23 2 13 11 14 11 7 -2 -7
-12 -6 -13 7 -3 8 7 18 11 21 8 4 -3 5 -2 2 2 -5 6 24 32 38 33 5 0 5 -6 1
-12 -6 -9 -3 -9 9 1 15 12 18 10 27 -15 6 -16 15 -41 21 -56 8 -21 7 -32 -6
-52 -10 -14 -14 -26 -10 -26 4 0 -11 -20 -34 -45 -40 -44 -43 -50 -43 -80 0
-35 4 -45 41 -92 27 -34 55 -56 93 -72 29 -12 62 -27 73 -31 137 -60 302 -71
380 -26 75 45 103 152 61 243 l-18 41 43 109 c55 138 57 184 12 241 -18 22
-40 60 -49 84 -30 75 -64 121 -155 210 -73 71 -90 93 -95 124 -3 22 -12 51
-20 66 -8 16 -11 28 -7 28 5 0 0 5 -10 11 -9 6 -15 14 -12 19 3 5 -5 14 -17
20 -22 11 -22 10 -4 -4 11 -9 16 -16 11 -16 -5 0 -20 11 -34 24 -27 25 -73 40
-85 29 -10 -10 -38 -13 -50 -5 -16 10 -28 10 -61 1z"/>
</g>
</svg>
